<?xml version="1.0" encoding="iso-8859-1"?>
<!-- Generator: Adobe Illustrator 19.0.0, SVG Export Plug-In . SVG Version: 6.00 Build 0)  -->
<svg version="1.1" id="Layer_1" xmlns="http://www.w3.org/2000/svg" xmlns:xlink="http://www.w3.org/1999/xlink" x="0px" y="0px"
	 viewBox="0 0 509.287 509.287" style="enable-background:new 0 0 509.287 509.287;" xml:space="preserve">
<circle style="fill:#F8B517;" cx="254.644" cy="254.644" r="254.644"/>
<path style="fill:#DEDEDF;" d="M355.348,358.061c-1.356,0-2.374-0.339-3.73-0.678c-4.747-2.034-7.121-7.46-5.086-12.546
	l64.763-154.956l-9.833-29.838c-1.695-5.086,1.017-10.511,6.103-11.868c5.086-1.695,10.511,1.017,11.868,6.103l11.189,33.229
	c0.678,2.034,0.678,4.408-0.339,6.781l-66.119,158.347C362.469,356.026,359.078,358.061,355.348,358.061z"/>
<path style="fill:#4F5565;" d="M412.313,356.366H72.901c-12.885,0-23.735,10.511-23.735,23.735
	c0,12.885,10.511,23.735,23.735,23.735h339.412c12.885,0,23.735-10.511,23.735-23.735S425.536,356.366,412.313,356.366z"/>
<path style="fill:#BDBDBE;" d="M383.83,328.901h-41.706c-9.155,0-16.615,7.46-16.615,16.615v11.189h74.935v-11.189
	C400.106,336.36,392.985,328.901,383.83,328.901z"/>
<path style="fill:#DEDEDF;" d="M370.946,187.168c-3.391,0-6.781-1.695-8.477-5.086c-2.374-4.747-0.678-10.511,3.73-12.885
	l80.021-43.062c4.747-2.374,10.511-0.678,12.885,3.73c2.374,4.747,0.678,10.511-3.73,12.885l-79.682,43.401
	C374.336,186.829,372.641,187.168,370.946,187.168z"/>
<g>
	<circle style="fill:#FCFCFD;" cx="254.644" cy="105.452" r="28.821"/>
	<path style="fill:#FCFCFD;" d="M333.309,187.168H288.89c0,0-31.534-41.028-37.298-43.74l-34.585-13.902
		c-1.356-0.678-6.781-1.017-8.138-1.017l-46.792,4.408c-2.034,0.339-4.069,1.017-6.103,2.034l-47.131,32.212
		c-5.764,4.069-7.121,11.868-3.391,17.632c2.374,3.73,11.189,7.46,17.632,3.391l44.419-30.517l28.482-2.713l-22.379,55.947
		c-5.086,12.546,1.017,26.787,13.563,31.534l63.407,25.43l16.954,77.987c2.374,13.902,17.632,12.207,18.988,12.207
		c8.477-2.034,13.902-10.172,12.207-18.988l-18.649-86.125c-1.017-5.086-4.747-9.494-9.833-11.189l-41.028-16.276l18.988-47.47
		l24.413,29.838c2.373,3.052,6.103,4.747,9.833,4.747h50.522c7.121,0,12.546-5.764,12.546-12.546
		C345.515,193.271,340.429,187.168,333.309,187.168z"/>
	<path style="fill:#FCFCFD;" d="M158.008,288.551l-61.711,25.77c-8.138,3.391-11.868,12.546-8.477,20.683
		c2.374,6.103,11.528,11.528,20.683,8.477l67.815-28.482c4.069-1.695,7.121-4.747,8.477-8.816l16.275-41.028l-29.16-12.885
		L158.008,288.551z"/>
</g>
<g>
</g>
<g>
</g>
<g>
</g>
<g>
</g>
<g>
</g>
<g>
</g>
<g>
</g>
<g>
</g>
<g>
</g>
<g>
</g>
<g>
</g>
<g>
</g>
<g>
</g>
<g>
</g>
<g>
</g>
</svg>
